<svg width="97" height="96" viewBox="0 0 97 96" fill="none" xmlns="http://www.w3.org/2000/svg">
<rect x="0.666992" width="96" height="96" rx="48" fill="#262B2A"/>
<path opacity="0.4" d="M66.7479 38.38L48.6679 48.84L30.5879 38.38C31.3879 36.9 32.5479 35.6 33.8479 34.88L44.5279 28.96C46.8079 27.68 50.5279 27.68 52.8079 28.96L63.4879 34.88C64.7879 35.6 65.9479 36.9 66.7479 38.38Z" fill="#58A738"/>
<path opacity="0.6" d="M48.6682 48.8399V67.9999C47.1682 67.9999 45.6682 67.6799 44.5282 67.0399L33.8482 61.1199C31.4282 59.7799 29.4482 56.4199 29.4482 53.6599V42.3399C29.4482 41.0599 29.8882 39.6599 30.5882 38.3799L48.6682 48.8399Z" fill="#58A738"/>
<path d="M67.888 42.3399V53.6599C67.888 56.4199 65.908 59.7799 63.488 61.1199L52.808 67.0399C51.668 67.6799 50.168 67.9999 48.668 67.9999V48.8399L66.748 38.3799C67.448 39.6599 67.888 41.0599 67.888 42.3399Z" fill="#58A738"/>
</svg>
