<svg width="97" height="96" viewBox="0 0 97 96" fill="none" xmlns="http://www.w3.org/2000/svg">
<rect x="0.333984" width="96" height="96" rx="48" fill="#262B2A"/>
<path opacity="0.4" d="M48.334 68C59.3797 68 68.334 59.0457 68.334 48C68.334 36.9543 59.3797 28 48.334 28C37.2883 28 28.334 36.9543 28.334 48C28.334 59.0457 37.2883 68 48.334 68Z" fill="#58A738"/>
<path d="M55.7543 55.86C55.4943 55.86 55.2343 55.8 54.9943 55.64L48.7943 51.94C47.2543 51.02 46.1143 49 46.1143 47.22V39.02C46.1143 38.2 46.7943 37.52 47.6143 37.52C48.4343 37.52 49.1143 38.2 49.1143 39.02V47.22C49.1143 47.94 49.7143 49 50.3343 49.36L56.5343 53.06C57.2543 53.48 57.4743 54.4 57.0543 55.12C56.7543 55.6 56.2543 55.86 55.7543 55.86Z" fill="#58A738"/>
</svg>
