<svg width="100" height="100" viewBox="0 0 100 100" fill="none" xmlns="http://www.w3.org/2000/svg">
<rect width="100" height="100" rx="50" fill="#2D5023"/>
<mask id="mask0_2665_5485" style="mask-type:luminance" maskUnits="userSpaceOnUse" x="25" y="25" width="50" height="50">
<path d="M75 25H25V75H75V25Z" fill="white"/>
</mask>
<g mask="url(#mask0_2665_5485)">
<path d="M62.5 75H37.5C30.625 75 25 69.375 25 62.5V37.5C25 30.625 30.625 25 37.5 25H62.5C69.375 25 75 30.625 75 37.5V62.5C75 69.375 69.375 75 62.5 75Z" fill="#58A738"/>
<path d="M57.4748 39.2875C57.4373 39.175 57.3748 39.0625 57.2873 38.975C57.1373 38.825 56.9498 38.75 56.7373 38.75C56.5248 38.75 56.3373 38.825 56.1873 38.975L52.5373 42.625C52.3123 42.85 52.2498 43.125 52.3498 43.425L53.0373 45.4875L49.6998 48.825C49.4123 49.1125 49.3248 49.45 49.4248 49.8375C49.5248 50.225 49.7748 50.475 50.1623 50.575C50.5498 50.675 50.8873 50.5875 51.1748 50.3L54.5123 46.9625L56.5748 47.65C56.8873 47.75 57.1498 47.6875 57.3748 47.4625L61.0248 43.8125C61.2248 43.6 61.2998 43.3625 61.2373 43.075C61.1748 42.7875 60.9998 42.6 60.7248 42.5125L58.4248 41.75C58.3373 41.725 58.2873 41.6625 58.2498 41.575L57.4748 39.275V39.2875ZM52.4748 40.2875C52.3498 39.9 52.0998 39.6625 51.6998 39.575C50.8498 39.375 49.9873 39.2875 49.0998 39.2875C47.5248 39.2875 46.0248 39.5875 44.5748 40.2C43.1873 40.7875 41.9498 41.6125 40.8873 42.6875C39.8123 43.7625 38.9873 44.9875 38.3998 46.375C37.7873 47.8125 37.4873 49.325 37.4873 50.9C37.4873 52.475 37.7873 53.9875 38.3998 55.425C38.9873 56.8125 39.8123 58.05 40.8873 59.1125C41.9623 60.1875 43.1873 61.0125 44.5748 61.6C46.0123 62.2125 47.5248 62.5125 49.0998 62.5125C50.6748 62.5125 52.1873 62.2125 53.6248 61.6C55.0123 61.0125 56.2498 60.1875 57.3123 59.1125C58.3873 58.0375 59.2123 56.8125 59.7998 55.425C60.4123 53.9875 60.7123 52.475 60.7123 50.9C60.7123 50.0375 60.6123 49.175 60.4248 48.35C60.3623 48.0625 60.2123 47.85 59.9623 47.6875C59.7123 47.5375 59.4498 47.4875 59.1748 47.55C58.8873 47.6125 58.6748 47.7625 58.5123 48.0125C58.3623 48.2625 58.3123 48.525 58.3748 48.8C58.5248 49.4875 58.5998 50.1875 58.5998 50.9C58.5998 52.1875 58.3498 53.425 57.8498 54.6C57.3748 55.7375 56.6873 56.75 55.8123 57.625C54.9373 58.5 53.9248 59.1875 52.7873 59.6625C51.6123 60.1625 50.3748 60.4125 49.0873 60.4125C47.7998 60.4125 46.5623 60.1625 45.3873 59.6625C44.2498 59.175 43.2373 58.5 42.3623 57.625C41.4873 56.75 40.7998 55.7375 40.3248 54.6C39.8248 53.425 39.5748 52.1875 39.5748 50.9C39.5748 49.6125 39.8248 48.375 40.3248 47.2C40.7998 46.0625 41.4873 45.05 42.3623 44.175C43.2373 43.3 44.2498 42.6125 45.3873 42.1375C46.5623 41.6375 47.7998 41.3875 49.0873 41.3875C49.8123 41.3875 50.5123 41.4625 51.2123 41.625C51.6123 41.7125 51.9373 41.6125 52.2123 41.3125C52.4873 41.0125 52.5623 40.675 52.4498 40.2875H52.4748ZM49.8498 47.15C50.0498 46.95 50.1623 46.7 50.1623 46.4125C50.1623 46.125 50.0623 45.875 49.8498 45.675C49.6498 45.475 49.3998 45.3625 49.1123 45.3625C48.3623 45.3625 47.6373 45.5125 46.9623 45.8C46.2998 46.075 45.7123 46.475 45.1998 46.9875C44.6873 47.5 44.2873 48.0875 44.0123 48.75C43.7248 49.4375 43.5748 50.15 43.5748 50.9C43.5748 51.65 43.7248 52.375 44.0123 53.05C44.2873 53.7125 44.6873 54.3 45.1998 54.8125C45.7123 55.325 46.2998 55.7125 46.9623 56C47.6498 56.2875 48.3623 56.4375 49.1123 56.4375C49.8623 56.4375 50.5873 56.2875 51.2623 56C51.9248 55.725 52.5123 55.325 53.0248 54.8125C53.5373 54.3 53.9373 53.7125 54.2123 53.05C54.4998 52.3625 54.6498 51.65 54.6498 50.9C54.6498 50.6125 54.5498 50.3625 54.3373 50.1625C54.1373 49.9625 53.8873 49.85 53.5998 49.85C53.3123 49.85 53.0623 49.95 52.8623 50.1625C52.6623 50.3625 52.5498 50.6125 52.5498 50.9C52.5498 51.85 52.2123 52.6625 51.5373 53.325C50.8623 54 50.0498 54.3375 49.1123 54.3375C48.1623 54.3375 47.3498 54 46.6748 53.325C45.9998 52.65 45.6623 51.8375 45.6623 50.9C45.6623 49.9625 45.9998 49.1375 46.6748 48.4625C47.3498 47.7875 48.1623 47.45 49.0998 47.45C49.3873 47.45 49.6373 47.35 49.8373 47.1375L49.8498 47.15Z" fill="white"/>
</g>
</svg>
