<svg width="72" height="72" viewBox="0 0 72 72" fill="none" xmlns="http://www.w3.org/2000/svg">
<rect width="72" height="72" rx="36" fill="#58A738"/>
<path d="M36 50C43.732 50 50 43.732 50 36C50 28.268 43.732 22 36 22C28.268 22 22 28.268 22 36C22 43.732 28.268 50 36 50Z" stroke="white" stroke-width="2.5" stroke-linecap="round" stroke-linejoin="round"/>
<path d="M30.3999 23.4H31.7999C29.0699 31.576 29.0699 40.424 31.7999 48.6H30.3999" stroke="white" stroke-width="2.5" stroke-linecap="round" stroke-linejoin="round"/>
<path d="M40.2 23.4C42.93 31.576 42.93 40.424 40.2 48.6" stroke="white" stroke-width="2.5" stroke-linecap="round" stroke-linejoin="round"/>
<path d="M23.3999 41.6V40.2C31.5759 42.93 40.4239 42.93 48.5999 40.2V41.6" stroke="white" stroke-width="2.5" stroke-linecap="round" stroke-linejoin="round"/>
<path d="M23.3999 31.8C31.5759 29.07 40.4239 29.07 48.5999 31.8" stroke="white" stroke-width="2.5" stroke-linecap="round" stroke-linejoin="round"/>
</svg>
