<svg width="105" height="40" viewBox="0 0 105 40" fill="none" xmlns="http://www.w3.org/2000/svg">
<rect x="0.5" y="0.5" width="104" height="39" rx="7.5" stroke="#58A738"/>
<path d="M22.576 26.16C21.7653 26.16 21.008 26.016 20.304 25.728C19.6 25.4293 18.9813 25.0187 18.448 24.496C17.9147 23.9733 17.4987 23.3653 17.2 22.672C16.912 21.968 16.768 21.2107 16.768 20.4C16.768 19.6 16.912 18.8533 17.2 18.16C17.4987 17.4667 17.9093 16.864 18.432 16.352C18.9653 15.8293 19.584 15.424 20.288 15.136C20.992 14.848 21.7493 14.704 22.56 14.704C23.1253 14.704 23.6747 14.784 24.208 14.944C24.752 15.104 25.2427 15.328 25.68 15.616C26.1173 15.904 26.4747 16.2347 26.752 16.608L25.632 17.776C25.312 17.4667 24.9813 17.2107 24.64 17.008C24.3093 16.8053 23.968 16.6507 23.616 16.544C23.264 16.4373 22.912 16.384 22.56 16.384C21.984 16.384 21.4507 16.4853 20.96 16.688C20.48 16.8907 20.0533 17.1733 19.68 17.536C19.3173 17.8987 19.0347 18.3253 18.832 18.816C18.6293 19.296 18.528 19.824 18.528 20.4C18.528 20.9547 18.6347 21.4827 18.848 21.984C19.0613 22.4747 19.3547 22.9067 19.728 23.28C20.112 23.6533 20.5493 23.9467 21.04 24.16C21.5413 24.3733 22.0693 24.48 22.624 24.48C23.04 24.48 23.4347 24.4213 23.808 24.304C24.1813 24.176 24.512 24 24.8 23.776C25.088 23.552 25.312 23.296 25.472 23.008C25.632 22.7093 25.712 22.3947 25.712 22.064V21.744L25.952 21.968H22.528V20.256H27.488C27.5093 20.3733 27.5253 20.4907 27.536 20.608C27.5467 20.7147 27.552 20.8213 27.552 20.928C27.5627 21.024 27.568 21.12 27.568 21.216C27.568 21.952 27.44 22.624 27.184 23.232C26.928 23.8293 26.5707 24.3467 26.112 24.784C25.664 25.2213 25.136 25.5627 24.528 25.808C23.9307 26.0427 23.28 26.16 22.576 26.16ZM33.178 26.16C32.3567 26.16 31.6207 25.9733 30.97 25.6C30.33 25.216 29.8233 24.6987 29.45 24.048C29.0767 23.3867 28.89 22.6347 28.89 21.792C28.89 20.9493 29.0767 20.2027 29.45 19.552C29.8233 18.8907 30.33 18.3733 30.97 18C31.6207 17.616 32.3567 17.424 33.178 17.424C33.9887 17.424 34.714 17.616 35.354 18C36.0047 18.3733 36.5167 18.8907 36.89 19.552C37.2633 20.2027 37.45 20.9493 37.45 21.792C37.45 22.6347 37.2633 23.3867 36.89 24.048C36.5167 24.6987 36.0047 25.216 35.354 25.6C34.714 25.9733 33.9887 26.16 33.178 26.16ZM33.178 24.656C33.6793 24.656 34.1273 24.5333 34.522 24.288C34.9167 24.032 35.226 23.6907 35.45 23.264C35.674 22.8267 35.7807 22.336 35.77 21.792C35.7807 21.2373 35.674 20.7467 35.45 20.32C35.226 19.8827 34.9167 19.5413 34.522 19.296C34.1273 19.0507 33.6793 18.928 33.178 18.928C32.6767 18.928 32.2233 19.056 31.818 19.312C31.4233 19.5573 31.114 19.8987 30.89 20.336C30.666 20.7627 30.5593 21.248 30.57 21.792C30.5593 22.336 30.666 22.8267 30.89 23.264C31.114 23.6907 31.4233 24.032 31.818 24.288C32.2233 24.5333 32.6767 24.656 33.178 24.656ZM44.7701 26V15.456H46.4181V26H44.7701ZM43.0261 19.2V17.6H48.3701V19.2H43.0261ZM53.5686 26.16C52.7473 26.16 52.0113 25.9733 51.3606 25.6C50.7206 25.216 50.214 24.6987 49.8406 24.048C49.4673 23.3867 49.2806 22.6347 49.2806 21.792C49.2806 20.9493 49.4673 20.2027 49.8406 19.552C50.214 18.8907 50.7206 18.3733 51.3606 18C52.0113 17.616 52.7473 17.424 53.5686 17.424C54.3793 17.424 55.1046 17.616 55.7446 18C56.3953 18.3733 56.9073 18.8907 57.2806 19.552C57.654 20.2027 57.8406 20.9493 57.8406 21.792C57.8406 22.6347 57.654 23.3867 57.2806 24.048C56.9073 24.6987 56.3953 25.216 55.7446 25.6C55.1046 25.9733 54.3793 26.16 53.5686 26.16ZM53.5686 24.656C54.07 24.656 54.518 24.5333 54.9126 24.288C55.3073 24.032 55.6166 23.6907 55.8406 23.264C56.0646 22.8267 56.1713 22.336 56.1606 21.792C56.1713 21.2373 56.0646 20.7467 55.8406 20.32C55.6166 19.8827 55.3073 19.5413 54.9126 19.296C54.518 19.0507 54.07 18.928 53.5686 18.928C53.0673 18.928 52.614 19.056 52.2086 19.312C51.814 19.5573 51.5046 19.8987 51.2806 20.336C51.0566 20.7627 50.95 21.248 50.9606 21.792C50.95 22.336 51.0566 22.8267 51.2806 23.264C51.5046 23.6907 51.814 24.032 52.2086 24.288C52.614 24.5333 53.0673 24.656 53.5686 24.656Z" fill="#58A738"/>
<path d="M81.0249 14.9417L86.0832 20L81.0249 25.0583" stroke="#58A738" stroke-width="1.5" stroke-miterlimit="10" stroke-linecap="round" stroke-linejoin="round"/>
<path d="M71.9165 20H85.9415" stroke="#58A738" stroke-width="1.5" stroke-miterlimit="10" stroke-linecap="round" stroke-linejoin="round"/>
</svg>
