<svg width="72" height="72" viewBox="0 0 72 72" fill="none" xmlns="http://www.w3.org/2000/svg">
<rect width="72" height="72" rx="36" fill="#58A738"/>
<path d="M49.3333 31.36V25.3067C49.3333 23.4267 48.48 22.6667 46.36 22.6667H40.9733C38.8533 22.6667 38 23.4267 38 25.3067V31.3467C38 33.24 38.8533 33.9867 40.9733 33.9867H46.36C48.48 34 49.3333 33.24 49.3333 31.36Z" stroke="white" stroke-width="2.5" stroke-linecap="round" stroke-linejoin="round"/>
<path d="M49.3333 46.36V40.9733C49.3333 38.8533 48.48 38 46.36 38H40.9733C38.8533 38 38 38.8533 38 40.9733V46.36C38 48.48 38.8533 49.3333 40.9733 49.3333H46.36C48.48 49.3333 49.3333 48.48 49.3333 46.36Z" stroke="white" stroke-width="2.5" stroke-linecap="round" stroke-linejoin="round"/>
<path d="M34.0001 31.36V25.3067C34.0001 23.4267 33.1467 22.6667 31.0267 22.6667H25.6401C23.5201 22.6667 22.6667 23.4267 22.6667 25.3067V31.3467C22.6667 33.24 23.5201 33.9867 25.6401 33.9867H31.0267C33.1467 34 34.0001 33.24 34.0001 31.36Z" stroke="white" stroke-width="2.5" stroke-linecap="round" stroke-linejoin="round"/>
<path d="M34.0001 46.36V40.9733C34.0001 38.8533 33.1467 38 31.0267 38H25.6401C23.5201 38 22.6667 38.8533 22.6667 40.9733V46.36C22.6667 48.48 23.5201 49.3333 25.6401 49.3333H31.0267C33.1467 49.3333 34.0001 48.48 34.0001 46.36Z" stroke="white" stroke-width="2.5" stroke-linecap="round" stroke-linejoin="round"/>
</svg>
