<svg width="100" height="100" viewBox="0 0 100 100" fill="none" xmlns="http://www.w3.org/2000/svg">
<rect width="100" height="100" rx="50" fill="#275066"/>
<path d="M75.7614 29.8272C76.1453 31.2218 76.5081 32.6249 76.9258 34.0112C77.1114 34.6287 76.9469 34.9858 76.4449 35.3848C75.5505 36.0948 74.7405 36.9097 73.8841 37.6743C73.4748 38.0397 73.0319 38.3716 72.6184 38.7329C71.319 39.8755 70.0534 41.0559 68.7245 42.1649C67.501 43.1857 66.3198 44.2485 65.1301 45.3029C63.4806 46.7732 61.7424 48.1385 60.1308 49.6592C59.0846 50.6464 57.8865 51.4697 56.7896 52.4065C56.2032 52.9064 55.7011 53.4945 55.1358 54.0196C54.7055 54.4187 54.2541 54.7926 53.79 55.1454C53.4863 55.3807 53.1952 55.2253 53.1656 54.822C53.0939 53.818 53.056 52.814 52.9674 51.8142C52.9125 51.2051 52.7902 50.6044 52.6974 49.9995C52.6847 49.5668 52.6678 49.1341 52.6552 48.7056C52.6088 48.2393 52.5708 47.7688 52.5159 47.3025C52.4611 46.7942 52.3936 46.2859 52.3261 45.7734C52.1995 44.7526 52.0561 43.736 51.9464 42.7152C51.9 42.2994 51.9464 41.8793 51.9127 41.4634C51.8958 41.2828 51.7861 41.1105 51.7186 40.9341C51.7186 40.8039 51.7144 40.6695 51.7102 40.5392C51.7608 40.0141 51.3769 40.1191 51.0816 40.1191C47.4661 40.1191 43.8506 40.1191 40.2351 40.1191C38.1974 40.1191 36.164 40.1191 34.1263 40.1191C33.2615 40.1191 33.1475 40.0393 32.945 39.1782C32.8607 38.8085 32.6793 38.6363 32.308 38.6489C32.308 38.3338 32.3249 38.0187 32.2996 37.7079C32.2911 37.5987 32.1814 37.4978 32.1182 37.3928C32.1604 36.1998 32.81 35.284 33.5146 34.3976C33.7888 34.0532 34.2318 33.8431 34.2402 33.3054C34.2402 33.1752 34.4469 33.0324 34.5735 32.919C35.316 32.2426 36.0627 31.5663 36.8179 30.8984C37.3621 30.4153 37.8768 29.886 38.4801 29.4953C38.8935 29.2307 39.4377 29.1508 39.9313 29.0248C40.1296 28.9744 40.349 29.0164 40.5599 29.0164C51.668 29.0164 62.7802 29.0164 73.8883 29.0248C74.365 29.0248 74.8459 29.1466 75.3227 29.2096C75.3058 29.5247 75.4408 29.7389 75.753 29.8272H75.7614Z" fill="#5861A5"/>
<path d="M25.3388 70.6128C25.1321 70.596 24.9254 70.5792 24.7187 70.5624C24.7187 70.2936 24.7862 69.9953 24.6934 69.7601C24.5879 69.4954 24.5837 69.0543 24.0985 69.0963C24.0183 68.7855 23.934 68.4788 23.8496 68.168C23.7821 67.9201 23.7104 67.6765 23.6429 67.4286C23.6977 67.0085 23.6049 66.6389 23.2547 66.3658C23.2547 66.3322 23.2547 66.2902 23.2463 66.2608C22.9004 65.4836 23.1662 64.9375 23.8074 64.4124C24.841 63.5681 25.8029 62.6355 26.807 61.7533C27.5579 61.0938 28.3384 60.4637 29.0893 59.7957C30.0006 58.9892 30.8696 58.1322 31.7893 57.3383C33.0676 56.2335 34.3839 55.1664 35.6748 54.0784C36.257 53.5869 36.8308 53.087 37.3961 52.5745C38.3748 51.684 39.3114 50.7514 40.3197 49.8944C41.8596 48.5922 43.3741 47.2689 44.8043 45.8491C45.0827 45.5718 45.4793 45.408 45.8252 45.1937C46.0826 45.7734 46.6099 45.492 47.0276 45.5718C47.0402 45.7776 47.0486 45.9835 47.0613 46.1935C46.9347 46.2733 46.8082 46.3489 46.6816 46.4288C46.8208 46.4876 46.9643 46.5464 47.1035 46.6052C47.1583 46.8236 47.2554 47.0379 47.268 47.2563C47.3524 48.8736 47.2807 50.5162 47.538 52.1041C47.8418 53.9818 47.9304 55.8554 47.9388 57.7415C47.9473 59.0144 48.1413 59.2202 49.3352 59.2202C55.0981 59.2202 60.8609 59.2286 66.628 59.2076C67.1469 59.2076 67.5772 59.3084 67.9527 59.6529C67.9569 60.4553 68.0202 61.2618 67.9527 62.06C67.8852 62.7993 67.6785 63.5261 67.535 64.2612C67.4675 64.257 67.4 64.257 67.3368 64.2612C67.2102 64.299 67.0836 64.3368 66.9571 64.3746C67.0077 64.4796 67.0583 64.5805 67.1089 64.6855C67.1047 64.8157 67.1005 64.9417 67.0921 65.072C66.4086 66.1054 65.683 67.0883 64.5903 67.7605C64.2402 67.9747 63.9955 68.3486 63.6833 68.6342C63.042 69.2182 62.3966 69.7937 61.7342 70.3524C61.5908 70.4742 61.3672 70.5414 61.1773 70.5624C60.8651 70.596 60.5445 70.575 60.2323 70.575C49.1369 70.575 38.0416 70.575 26.9504 70.575C26.5665 70.575 26.1784 70.596 25.7945 70.6086C25.651 70.6086 25.5034 70.6086 25.3599 70.6086L25.3388 70.6128Z" fill="#709F83"/>
<path d="M32.1224 37.3928C32.1857 37.4978 32.2954 37.5987 32.3038 37.7079C32.3291 38.0187 32.3123 38.3338 32.3123 38.6489C32.3123 38.8925 32.2996 39.1404 32.3123 39.384C32.3713 40.4468 32.4726 40.5392 33.5146 40.5434C39.5812 40.5434 45.6478 40.5434 51.7186 40.5434C51.7186 40.6737 51.7229 40.8081 51.7271 40.9383C48.9638 40.9467 46.1963 40.9593 43.433 40.9635C40.0031 40.9677 36.5732 40.9635 33.1434 40.9635C32.1266 40.9635 31.9073 40.7493 31.8946 39.7663C31.8862 39.1026 31.882 38.443 31.903 37.7793C31.9073 37.6491 32.0507 37.523 32.1266 37.397L32.1224 37.3928Z" fill="#8388AD"/>
<path d="M67.9445 59.6655C67.5691 59.3211 67.143 59.2202 66.6198 59.2202C60.857 59.2412 55.0941 59.2328 49.3271 59.2328C48.1289 59.2328 47.9391 59.027 47.9307 57.7542C48.0657 57.8298 48.2766 57.876 48.323 57.9894C48.6732 58.8086 48.6647 58.8128 49.5507 58.8128C55.2671 58.8128 60.9878 58.8128 66.7042 58.8128C66.8434 58.8128 66.9869 58.8128 67.1261 58.8128C67.6633 58.8184 67.9361 59.1026 67.9445 59.6655Z" fill="#C8DDCF"/>
<path d="M47.0232 45.5844C46.6055 45.5046 46.0781 45.786 45.8208 45.2063C45.8208 45.1727 45.8208 45.1307 45.8335 45.1097C46.0571 44.824 46.2596 44.4166 46.6899 44.5594C47.1877 44.7232 47.0864 45.1853 47.0232 45.5886V45.5844Z" fill="#86A593"/>
<path d="M52.6601 48.7098C52.6728 49.1425 52.6897 49.5751 52.7023 50.0036C52.2762 50.0456 52.0906 49.8776 52.1328 49.4281C52.1666 49.0627 52.0526 48.6342 52.6601 48.7098Z" fill="#DCDFF3"/>
<path d="M24.0986 69.1005C24.5838 69.0585 24.588 69.4996 24.6935 69.7642C24.7863 69.9995 24.7188 70.2977 24.7188 70.5666C24.5964 70.533 24.3771 70.5246 24.3644 70.4658C24.2547 70.0163 24.183 69.5584 24.0986 69.1047V69.1005Z" fill="#93B09F"/>
<path d="M23.2548 66.37C23.6092 66.643 23.702 67.0085 23.6429 67.4328C23.2084 67.4832 23.1999 67.0757 23.0565 66.8489C22.9679 66.7061 22.951 66.433 23.2506 66.37H23.2548Z" fill="#C5DACE"/>
<path d="M67.0796 65.0804C67.0838 64.9501 67.088 64.8241 67.0965 64.6939C67.1724 64.5553 67.2483 64.4124 67.3243 64.2738C67.3918 64.2654 67.4593 64.2654 67.5226 64.2738C67.8938 64.7779 67.7841 64.9754 67.0796 65.0846V65.0804Z" fill="#C6DDD1"/>
<path d="M75.7618 29.8272C75.4496 29.739 75.3146 29.5247 75.3315 29.2097C75.5255 29.2979 75.7238 29.3777 75.901 29.4869C75.9179 29.4995 75.8124 29.7096 75.7618 29.8272Z" fill="#9499BA"/>
<path d="M25.339 70.6128C25.4825 70.6128 25.6301 70.6128 25.7736 70.6128C25.7736 70.7136 25.7947 70.8229 25.7609 70.9069C25.7187 71.0077 25.6259 71.0875 25.5542 71.1799C25.4825 71.0875 25.3939 71.0077 25.3517 70.9069C25.3179 70.8229 25.339 70.7094 25.339 70.6128Z" fill="#E7F6EB"/>
<path d="M47.0991 46.6178C46.9599 46.559 46.8165 46.5002 46.6772 46.4414C46.8038 46.3615 46.9304 46.2859 47.0569 46.2061C47.0696 46.3447 47.0865 46.4792 47.0991 46.6178Z" fill="#86A593"/>
<path d="M51.7147 40.5393C45.6481 40.5393 39.5815 40.5393 33.5107 40.5393C32.4687 40.5393 32.3674 40.4426 32.3084 39.3798C32.2957 39.1362 32.3084 38.8925 32.3084 38.6447C32.6796 38.6321 32.861 38.8043 32.9454 39.174C33.1479 40.0352 33.2618 40.1108 34.1267 40.115C36.1643 40.115 38.1978 40.115 40.2354 40.115C43.8509 40.115 47.4664 40.115 51.0819 40.115C51.3772 40.115 51.7611 40.01 51.7105 40.5351L51.7147 40.5393Z" fill="#5D6499"/>
<path d="M67.3245 64.2696C67.2486 64.4082 67.1726 64.5511 67.0967 64.6897C67.0461 64.5847 66.9954 64.4839 66.9448 64.3788C67.0714 64.341 67.1979 64.3032 67.3245 64.2654V64.2696Z" fill="#97B6A5"/>
</svg>
