<svg width="97" height="96" viewBox="0 0 97 96" fill="none" xmlns="http://www.w3.org/2000/svg">
<rect x="0.333252" width="96" height="96" rx="48" fill="#FAFAFA"/>
<path opacity="0.4" d="M48.3333 68C59.3789 68 68.3333 59.0457 68.3333 48C68.3333 36.9543 59.3789 28 48.3333 28C37.2876 28 28.3333 36.9543 28.3333 48C28.3333 59.0457 37.2876 68 48.3333 68Z" fill="#8BCF70"/>
<path d="M55.7533 55.86C55.4933 55.86 55.2333 55.8 54.9933 55.64L48.7933 51.94C47.2533 51.02 46.1133 49 46.1133 47.22V39.02C46.1133 38.2 46.7933 37.52 47.6133 37.52C48.4333 37.52 49.1133 38.2 49.1133 39.02V47.22C49.1133 47.94 49.7133 49 50.3333 49.36L56.5333 53.06C57.2533 53.48 57.4733 54.4 57.0533 55.12C56.7533 55.6 56.2533 55.86 55.7533 55.86Z" fill="#8BCF70"/>
</svg>
