<svg width="96" height="96" viewBox="0 0 96 96" fill="none" xmlns="http://www.w3.org/2000/svg">
<rect width="96" height="96" rx="48" fill="#FAFAFA"/>
<path opacity="0.4" d="M59.96 45.58V53.58C59.96 54.1 59.94 54.6 59.88 55.08C59.42 60.48 56.24 63.16 50.38 63.16H49.58C49.08 63.16 48.6 63.4 48.3 63.8L45.9 67C44.84 68.42 43.12 68.42 42.06 67L39.66 63.8C39.4 63.46 38.82 63.16 38.38 63.16H37.58C31.2 63.16 28 61.58 28 53.58V45.58C28 39.72 30.7 36.54 36.08 36.08C36.56 36.02 37.06 36 37.58 36H50.38C56.76 36 59.96 39.2 59.96 45.58Z" fill="#8BCF70"/>
<path d="M43.98 52C42.86 52 41.98 51.1 41.98 50C41.98 48.9 42.88 48 43.98 48C45.08 48 45.98 48.9 45.98 50C45.98 51.1 45.1 52 43.98 52Z" fill="#8BCF70"/>
<path d="M50.98 52C49.86 52 48.98 51.1 48.98 50C48.98 48.9 49.88 48 50.98 48C52.08 48 52.98 48.9 52.98 50C52.98 51.1 52.08 52 50.98 52Z" fill="#8BCF70"/>
<path d="M37 52C35.88 52 35 51.1 35 50C35 48.9 35.9 48 37 48C38.1 48 39 48.9 39 50C39 51.1 38.1 52 37 52Z" fill="#8BCF70"/>
<path d="M67.9601 37.58V45.58C67.9601 51.46 65.2601 54.62 59.8801 55.08C59.9401 54.6 59.9601 54.1 59.9601 53.58V45.58C59.9601 39.2 56.7601 36 50.3801 36H37.5801C37.0601 36 36.5601 36.02 36.0801 36.08C36.5401 30.7 39.7201 28 45.5801 28H58.3801C64.7601 28 67.9601 31.2 67.9601 37.58Z" fill="#8BCF70"/>
</svg>
