<svg width="100" height="100" viewBox="0 0 100 100" fill="none" xmlns="http://www.w3.org/2000/svg">
<rect width="100" height="100" rx="50" fill="#FFF7E5"/>
<mask id="mask0_2665_5288" style="mask-type:luminance" maskUnits="userSpaceOnUse" x="25" y="25" width="50" height="50">
<path d="M75 25H25V75H75V25Z" fill="white"/>
</mask>
<g mask="url(#mask0_2665_5288)">
<path d="M62.5 75H37.5C30.625 75 25 69.375 25 62.5V37.5C25 30.625 30.625 25 37.5 25H62.5C69.375 25 75 30.625 75 37.5V62.5C75 69.375 69.375 75 62.5 75Z" fill="#FFC74A"/>
<path d="M61.25 51.775C60.725 51.775 60.3125 52.1875 60.3125 52.7125V58.125C60.3125 58.65 60.725 59.0625 61.25 59.0625C61.775 59.0625 62.1875 58.65 62.1875 58.125V52.7125C62.1875 52.1875 61.775 51.775 61.25 51.775Z" fill="white"/>
<path d="M38.75 51.775C38.225 51.775 37.8125 52.1875 37.8125 52.7125V58.125C37.8125 58.65 38.225 59.0625 38.75 59.0625C39.275 59.0625 39.6875 58.65 39.6875 58.125V52.7125C39.6875 52.1875 39.275 51.775 38.75 51.775Z" fill="white"/>
<path d="M58.9624 49.275C57.9249 47.925 56.5624 46.875 55.1124 46.15L56.1499 44.375C56.3624 44.375 56.5624 44.475 56.7749 44.475C58.4374 44.475 59.7999 43.125 59.7999 41.45C59.7999 39.775 58.4499 38.425 56.7749 38.425C55.0999 38.425 53.7499 39.775 53.7499 41.45C53.7499 42.2875 54.0624 43.0125 54.5874 43.5375L53.4374 45.5125C52.3999 45.2 51.2499 44.9875 50.0999 44.9875C48.9499 44.9875 47.8124 45.2 46.7624 45.5125L45.6124 43.5375C46.1374 43.0125 46.4499 42.2875 46.4499 41.45C46.4499 39.7875 45.0999 38.425 43.4249 38.425C41.7499 38.425 40.3999 39.775 40.3999 41.45C40.3999 43.125 41.7499 44.475 43.4249 44.475C43.6374 44.475 43.8374 44.475 44.0499 44.375L45.0874 46.15C43.6249 46.875 42.2749 47.925 41.2374 49.275L41.0249 49.4875C40.6124 50.0125 40.3999 50.525 40.3999 51.15V58.75C40.3999 60.2125 41.6499 61.4625 43.1124 61.4625H57.0749C58.5374 61.4625 59.7874 60.2125 59.7874 58.75V51.15C59.7874 50.525 59.5749 49.9 59.1624 49.4875L58.9499 49.275H58.9624ZM56.6749 40.3125C57.2999 40.3125 57.9249 40.8375 57.9249 41.5625C57.9249 42.1875 57.3999 42.8125 56.6749 42.8125C56.0499 42.8125 55.4249 42.2875 55.4249 41.5625C55.5249 40.8375 56.0499 40.3125 56.6749 40.3125ZM43.3374 42.7125C42.7124 42.7125 42.0874 42.1875 42.0874 41.4625C42.0874 40.8375 42.6124 40.2125 43.3374 40.2125C43.9624 40.2125 44.5874 40.7375 44.5874 41.4625C44.5874 42.1875 43.9624 42.7125 43.3374 42.7125ZM55.3124 53.3375C55.3124 54.0625 54.6874 54.6875 53.9624 54.6875H45.9374C45.2124 54.6875 44.5874 54.0625 44.5874 53.3375V53.125C44.5874 52.4 45.2124 51.775 45.9374 51.775H53.9624C54.6874 51.775 55.3124 52.4 55.3124 53.125V53.3375Z" fill="white"/>
</g>
</svg>
