<svg width="100" height="100" viewBox="0 0 100 100" fill="none" xmlns="http://www.w3.org/2000/svg">
<rect width="100" height="100" rx="50" fill="#F4EFFD"/>
<g clip-path="url(#clip0_2665_5287)">
<mask id="mask0_2665_5287" style="mask-type:luminance" maskUnits="userSpaceOnUse" x="22" y="22" width="56" height="56">
<path d="M78 22H22V78H78V22Z" fill="white"/>
</mask>
<g mask="url(#mask0_2665_5287)">
<mask id="mask1_2665_5287" style="mask-type:luminance" maskUnits="userSpaceOnUse" x="28" y="23" width="43" height="54">
<path d="M70.7813 23.75H28.7812V76.25H70.7813V23.75Z" fill="white"/>
</mask>
<g mask="url(#mask1_2665_5287)">
<path d="M34.0313 23.75C31.137 23.7567 28.788 26.1058 28.7812 29V71C28.788 73.8942 31.137 76.2433 34.0313 76.25H65.5312C68.4255 76.2433 70.7745 73.8942 70.7813 71V39.3721L55.1659 23.75H34.0313Z" fill="#925DF1"/>
<g opacity="0.4">
<mask id="mask2_2665_5287" style="mask-type:luminance" maskUnits="userSpaceOnUse" x="55" y="23" width="16" height="17">
<path d="M70.7847 23.75H55.1626V39.3721H70.7847V23.75Z" fill="white"/>
</mask>
<g mask="url(#mask2_2665_5287)">
<path d="M60.4126 39.3721H70.778L55.1626 23.75V34.1221C55.1693 37.0163 57.5184 39.3587 60.4126 39.3721Z" fill="white"/>
</g>
</g>
<path d="M44.9014 60.8163C43.3668 60.8163 42.1216 59.5712 42.1216 58.0365C42.1216 56.5019 43.3668 55.2567 44.9014 55.2567C46.436 55.2567 47.6812 56.5019 47.6812 58.0365C47.6812 59.5712 46.4293 60.8163 44.9014 60.8163ZM44.9014 56.3538C43.9725 56.3538 43.2187 57.1077 43.2187 58.0365C43.2187 58.9654 43.9725 59.7192 44.9014 59.7192C45.8302 59.7192 46.5841 58.9654 46.5841 58.0365C46.5841 57.1077 45.8302 56.3538 44.9014 56.3538Z" fill="white"/>
<path d="M47.3783 54.1192C46.1332 54.1192 45.1235 53.1096 45.1235 51.8644C45.1235 50.6192 46.1332 49.6096 47.3783 49.6096C48.6235 49.6096 49.6332 50.6192 49.6332 51.8644C49.6332 53.1096 48.6235 54.1192 47.3783 54.1192ZM47.3783 50.7067C46.7389 50.7067 46.2207 51.225 46.2207 51.8644C46.2207 52.5038 46.7389 53.0221 47.3783 53.0221C48.0178 53.0221 48.536 52.5038 48.536 51.8644C48.536 51.225 48.0178 50.7067 47.3783 50.7067Z" fill="white"/>
<path d="M39.3891 54.2135C38.1439 54.2135 37.1343 53.2038 37.1343 51.9586C37.1343 50.7135 38.1439 49.7038 39.3891 49.7038C40.6343 49.7038 41.6439 50.7135 41.6439 51.9586C41.6439 53.2038 40.6343 54.2135 39.3891 54.2135ZM39.3891 50.801C38.7497 50.801 38.2314 51.3192 38.2314 51.9586C38.2314 52.5981 38.7497 53.1163 39.3891 53.1163C40.0285 53.1163 40.5468 52.5981 40.5468 51.9586C40.5468 51.3192 40.0285 50.801 39.3891 50.801Z" fill="white"/>
<path d="M39.3891 65.9115C38.1439 65.9115 37.1343 64.9019 37.1343 63.6567C37.1343 62.4115 38.1439 61.4019 39.3891 61.4019C40.6343 61.4019 41.6439 62.4115 41.6439 63.6567C41.6439 64.9019 40.6343 65.9115 39.3891 65.9115ZM39.3891 62.499C38.7497 62.499 38.2314 63.0173 38.2314 63.6567C38.2314 64.2961 38.7497 64.8144 39.3891 64.8144C40.0285 64.8144 40.5468 64.2961 40.5468 63.6567C40.5468 63.0173 40.0285 62.499 39.3891 62.499Z" fill="white"/>
<path d="M48.2934 66.4567C47.0482 66.4567 46.0386 65.4471 46.0386 64.2019C46.0386 62.9567 47.0482 61.9471 48.2934 61.9471C49.5386 61.9471 50.5482 62.9567 50.5482 64.2019C50.5482 65.4471 49.5386 66.4567 48.2934 66.4567ZM48.2934 63.0442C47.654 63.0442 47.1357 63.5625 47.1357 64.2019C47.1357 64.8413 47.654 65.3596 48.2934 65.3596C48.9328 65.3596 49.4511 64.8413 49.4511 64.2019C49.4511 63.5625 48.9328 63.0442 48.2934 63.0442Z" fill="white"/>
<path d="M51.726 60.574C50.4808 60.574 49.4712 59.5644 49.4712 58.3192C49.4712 57.074 50.4808 56.0644 51.726 56.0644C52.9712 56.0644 53.9808 57.074 53.9808 58.3192C53.9808 59.5644 52.9712 60.574 51.726 60.574ZM51.726 57.1548C51.0866 57.1548 50.5683 57.6731 50.5683 58.3125C50.5683 58.9519 51.0866 59.4702 51.726 59.4702C52.3654 59.4702 52.8837 58.9519 52.8837 58.3125C52.8837 57.6731 52.3654 57.1548 51.726 57.1548Z" fill="white"/>
<path d="M42.9968 57.3298C42.8285 57.3298 42.667 57.2558 42.5593 57.1144L40.318 54.126C40.1362 53.8837 40.1833 53.5404 40.4257 53.3587C40.668 53.1769 41.0112 53.224 41.193 53.4663L43.4343 56.4548C43.616 56.6971 43.5689 57.0404 43.3266 57.2221C43.2257 57.2894 43.1112 57.3298 42.9968 57.3298Z" fill="white"/>
<path d="M47.7282 63.0779C47.5599 63.0779 47.3917 62.9971 47.284 62.849L45.7225 60.6683C45.5475 60.4192 45.6013 60.0827 45.8503 59.9077C46.0994 59.7327 46.4359 59.7865 46.6109 60.0356L48.1724 62.2163C48.3474 62.4654 48.2936 62.8019 48.0446 62.9769C47.9436 63.0442 47.8359 63.0779 47.7282 63.0779Z" fill="white"/>
<path d="M50.0232 58.8644H47.2097C46.9069 58.8644 46.6646 58.6221 46.6646 58.3192C46.6646 58.0164 46.9069 57.774 47.2097 57.774H50.0232C50.3261 57.774 50.5684 58.0164 50.5684 58.3192C50.5684 58.6221 50.3261 58.8644 50.0232 58.8644Z" fill="white"/>
<path d="M46.0928 56.3606C45.9985 56.3606 45.9043 56.3404 45.8235 56.2865C45.561 56.1385 45.4735 55.8019 45.6216 55.5394L46.9139 53.2981C47.062 53.0356 47.3985 52.9481 47.661 53.0962C47.9235 53.2442 48.011 53.5808 47.863 53.8433L46.5707 56.0846C46.463 56.2663 46.2812 56.3606 46.0928 56.3606Z" fill="white"/>
<path d="M40.5936 62.8221C40.4456 62.8221 40.2907 62.7615 40.1831 62.6336C39.9811 62.4048 40.0081 62.0615 40.2302 61.8596L42.835 59.5644C43.0638 59.3625 43.4071 59.3827 43.609 59.6115C43.8109 59.8404 43.784 60.1836 43.5619 60.3856L40.9571 62.6808C40.8494 62.7817 40.7215 62.8221 40.5936 62.8221Z" fill="white"/>
</g>
</g>
</g>
<defs>
<clipPath id="clip0_2665_5287">
<rect width="56" height="56" fill="white" transform="translate(22 22)"/>
</clipPath>
</defs>
</svg>
