<svg width="72" height="72" viewBox="0 0 72 72" fill="none" xmlns="http://www.w3.org/2000/svg">
<rect width="72" height="72" rx="36" fill="#8BCF70"/>
<path d="M24.0127 43.7985C23.458 43.8029 23.0031 43.3792 23 42.8536V40.0188C23 38.4522 24.3616 37.1812 26.0413 37.1812H31.3432C31.8212 37.1826 32.2361 36.8667 32.336 36.424C32.4927 35.7033 32.4205 35.2462 32.1193 35.0496C30.3443 33.895 29.1625 32.0008 29.0841 29.846L29.0795 29.6188C29.0795 25.9629 32.2545 23 36.1733 23L36.4177 23.0044C40.1413 23.1223 43.1365 25.9163 43.2625 29.3903L43.2671 29.6188L43.2625 29.846C43.1842 32.0023 42.0024 33.895 40.2274 35.0496C39.9262 35.2462 39.8539 35.7048 40.0107 36.424C40.0983 36.8288 40.4548 37.1287 40.8851 37.1753L41.005 37.1812H46.3069C47.9267 37.1812 49.2483 38.3619 49.3405 39.8514L49.3467 40.0174V42.8551C49.3467 43.3399 48.9563 43.7388 48.4523 43.7942L48.3339 43.8H24.0127V43.7985Z" stroke="white" stroke-width="2.5" stroke-miterlimit="10"/>
<path d="M23 49L49.3467 49" stroke="white" stroke-width="2.5" stroke-linecap="round" stroke-linejoin="round"/>
</svg>
