<svg width="65" height="64" viewBox="0 0 65 64" fill="none" xmlns="http://www.w3.org/2000/svg">
<mask id="mask0_1722_5445" style="mask-type:luminance" maskUnits="userSpaceOnUse" x="0" y="0" width="65" height="64">
<path d="M64.3334 0H0.333374V64H64.3334V0Z" fill="white"/>
</mask>
<g mask="url(#mask0_1722_5445)">
<mask id="mask1_1722_5445" style="mask-type:luminance" maskUnits="userSpaceOnUse" x="8" y="2" width="49" height="60">
<path d="M56.3334 2H8.33337V62H56.3334V2Z" fill="white"/>
</mask>
<g mask="url(#mask1_1722_5445)">
<path d="M14.3334 2C11.0257 2.00769 8.34107 4.69231 8.33337 8V56C8.34107 59.3077 11.0257 61.9923 14.3334 62H50.3334C53.6411 61.9923 56.3257 59.3077 56.3334 56V19.8538L38.4872 2H14.3334Z" fill="#FF8F6B"/>
<g opacity="0.4">
<mask id="mask2_1722_5445" style="mask-type:luminance" maskUnits="userSpaceOnUse" x="38" y="2" width="19" height="18">
<path d="M56.3372 2H38.4834V19.8538H56.3372V2Z" fill="white"/>
</mask>
<g mask="url(#mask2_1722_5445)">
<path d="M44.4834 19.8538H56.3296L38.4834 2V13.8538C38.4911 17.1615 41.1757 19.8385 44.4834 19.8538Z" fill="white"/>
</g>
</g>
<path d="M32.8103 35.5077C32.5488 34.8616 32.1257 34.3 31.5795 33.8693C31.0257 33.4539 30.3795 33.1846 29.6949 33.0693C28.9488 32.9462 28.2026 32.8923 27.4488 32.9077H21.7565V49.4616H24.1257V42.9154H27.618C29.7257 42.9154 31.218 42.4077 32.0411 41.4077C32.8719 40.3846 33.3103 39.1 33.2719 37.7846C33.2795 37 33.118 36.2231 32.8103 35.5077ZM30.8411 37.8539C30.8872 38.5923 30.6257 39.3154 30.1257 39.8539C29.418 40.3923 28.5334 40.6462 27.6411 40.5539H24.118V35.2539H27.5949C28.1719 35.2308 28.7488 35.2693 29.318 35.3846C29.7719 35.5231 30.1642 35.8308 30.4103 36.2462C30.7103 36.7308 30.8565 37.2846 30.8411 37.8539Z" fill="white"/>
</g>
</g>
</svg>
