<svg width="64" height="64" viewBox="0 0 64 64" fill="none" xmlns="http://www.w3.org/2000/svg">
<mask id="mask0_1734_89" style="mask-type:luminance" maskUnits="userSpaceOnUse" x="0" y="0" width="64" height="64">
<path d="M64 0H0V64H64V0Z" fill="white"/>
</mask>
<g mask="url(#mask0_1734_89)">
<mask id="mask1_1734_89" style="mask-type:luminance" maskUnits="userSpaceOnUse" x="8" y="2" width="48" height="60">
<path d="M56 2H8V62H56V2Z" fill="white"/>
</mask>
<g mask="url(#mask1_1734_89)">
<path d="M14 2C10.6923 2.00769 8.00769 4.69231 8 8V56C8.00769 59.3077 10.6923 61.9923 14 62H50C53.3077 61.9923 55.9923 59.3077 56 56V19.8538L38.1538 2H14Z" fill="#53CBAE"/>
<g opacity="0.4">
<mask id="mask2_1734_89" style="mask-type:luminance" maskUnits="userSpaceOnUse" x="38" y="2" width="19" height="18">
<path d="M56.0038 2H38.1499V19.8538H56.0038V2Z" fill="white"/>
</mask>
<g mask="url(#mask2_1734_89)">
<path d="M44.1499 19.8538H55.9961L38.1499 2V13.8538C38.1576 17.1615 40.8422 19.8385 44.1499 19.8538Z" fill="white"/>
</g>
</g>
</g>
</g>
<path d="M22.8309 47.1077L20.3309 47.0923L18.3386 44.0538H18.277H17.1463V47.1077H15.0386V38.1H18.3155C19.0617 38.1 19.7155 38.2231 20.2693 38.4692C20.8232 38.7154 21.2463 39.0615 21.5463 39.5154C21.8386 39.9692 21.9924 40.4846 21.9924 41.0769C21.9924 41.6461 21.854 42.1461 21.5847 42.5769C21.3155 43.0154 20.9232 43.3538 20.4155 43.6077L22.8309 47.1077ZM17.1463 39.8692V42.2923H18.0693C18.5386 42.2923 18.9386 42.2 19.2693 42.0154C19.6001 41.8307 19.7693 41.5154 19.7693 41.0769C19.7693 40.2692 19.2001 39.8692 18.0693 39.8692H17.1463Z" fill="white"/>
<path d="M22.5615 38.0999H30.0692V39.9614H27.3615V47.1152H25.2692V39.9614H22.5615V38.0999Z" fill="white"/>
<path d="M31.0386 38.0999H37.0693V39.9306H33.1463V41.8999H36.6693V43.7229H33.1463V47.1075H31.0386V38.0999Z" fill="white"/>
</svg>
