<svg width="64" height="64" viewBox="0 0 64 64" fill="none" xmlns="http://www.w3.org/2000/svg">
<mask id="mask0_1722_5373" style="mask-type:luminance" maskUnits="userSpaceOnUse" x="0" y="0" width="65" height="64">
<path d="M64.0001 0H0.00012207V64H64.0001V0Z" fill="white"/>
</mask>
<g mask="url(#mask0_1722_5373)">
<mask id="mask1_1722_5373" style="mask-type:luminance" maskUnits="userSpaceOnUse" x="8" y="2" width="49" height="60">
<path d="M56.0001 2H8.00012V62H56.0001V2Z" fill="white"/>
</mask>
<g mask="url(#mask1_1722_5373)">
<path d="M14.0001 2C10.6924 2.00769 8.00781 4.69231 8.00012 8V56C8.00781 59.3077 10.6924 61.9923 14.0001 62H50.0001C53.3078 61.9923 55.9924 59.3077 56.0001 56V19.8538L38.154 2H14.0001Z" fill="#EA4845"/>
<g opacity="0.4">
<mask id="mask2_1722_5373" style="mask-type:luminance" maskUnits="userSpaceOnUse" x="38" y="2" width="19" height="18">
<path d="M56.004 2H38.1501V19.8538H56.004V2Z" fill="white"/>
</mask>
<g mask="url(#mask2_1722_5373)">
<path d="M44.1501 19.8538H55.9963L38.1501 2V13.8538C38.1578 17.1615 40.8425 19.8385 44.1501 19.8538Z" fill="white"/>
</g>
</g>
<path d="M34.877 46.1077C34.8539 46.1077 34.8309 46.1077 34.8078 46.1C32.9539 45.8923 31.2232 45.1539 29.7924 43.9539C29.7539 43.9385 29.7232 43.9154 29.6924 43.9C28.677 43.1462 27.7309 42.2923 26.877 41.3693C26.377 40.8231 25.9001 40.2385 25.4616 39.6385C23.7309 37.2923 22.7616 34.8077 22.8539 33C22.8616 32.5769 22.9847 32.1385 23.2155 31.7616C23.3924 31.4616 23.777 31.3693 24.0693 31.5462C24.3693 31.7231 24.4616 32.1077 24.2847 32.4C24.1693 32.5923 24.1078 32.8154 24.1001 33.0462C24.0155 34.5693 24.9232 36.8077 26.4616 38.9C26.877 39.4693 27.3155 40.0154 27.7847 40.5231C28.5616 41.3616 29.4155 42.1385 30.3386 42.8308C30.3924 42.8539 30.4463 42.8846 30.4924 42.9231C31.7463 44.0077 33.2847 44.6769 34.9309 44.8539C35.277 44.8923 35.5232 45.2 35.4847 45.5462C35.4616 45.8693 35.1924 46.1077 34.877 46.1077Z" fill="white"/>
<path d="M20.4539 50.4692C20.277 50.4692 20.1078 50.4 19.9847 50.2538C19.7539 49.9923 19.7847 49.6 20.0385 49.3692C20.0924 49.3231 20.1385 49.2692 20.1847 49.2231C21.2462 47.9461 22.1847 46.5385 22.9616 45.0538C22.9924 45 23.0231 44.9538 23.0616 44.9077C23.5616 43.9077 23.9847 42.9692 24.3616 42.0385C24.7462 41.0846 25.077 40.0923 25.3616 39.1C26.0155 37.1231 26.3154 35.1 26.2616 33.0461C26.2616 32.8769 26.2308 32.7308 26.177 32.5923C26.0462 32.2769 26.1924 31.9077 26.5078 31.7769C26.8231 31.6385 27.1924 31.7923 27.3231 32.1077C27.4462 32.4 27.5078 32.7154 27.5078 33.0385C27.5616 35.2154 27.2462 37.3846 26.5539 39.4692C26.2693 40.4769 25.9155 41.5077 25.5155 42.5077C25.1078 43.5154 24.6385 44.5384 24.0924 45.6231C24.0616 45.6846 24.0231 45.7385 23.977 45.7846C23.177 47.2923 22.2155 48.7231 21.1231 50.0385C21.0308 50.1461 20.9462 50.2308 20.8462 50.3154C20.7462 50.4154 20.6001 50.4692 20.4539 50.4692Z" fill="white"/>
<path d="M18.5847 48.423C18.4155 48.423 18.2462 48.3538 18.1231 48.223C17.8924 47.9692 17.9078 47.5769 18.1616 47.3384C18.3385 47.1769 18.5308 47.0384 18.7462 46.9307C20.1693 46.0846 21.7231 45.3461 23.3155 44.7538C23.3539 44.7384 23.3847 44.7307 23.4231 44.723C24.1616 44.4307 25.0001 44.1384 26.1385 43.7846C27.6078 43.3307 28.8539 43.0076 29.9462 42.7846C29.977 42.7769 30.0001 42.7769 30.0308 42.7769C31.6001 42.4384 33.2001 42.2538 34.8001 42.2307H34.9462C35.2924 42.2307 35.5693 42.5076 35.5693 42.8538C35.5693 43.1999 35.2924 43.4769 34.9462 43.4769H34.8078C33.277 43.4999 31.7385 43.6769 30.2308 44.0076C30.1847 44.0153 30.1385 44.023 30.1001 44.023C29.1385 44.223 27.9308 44.5461 26.5001 44.9846C25.3539 45.3461 24.5155 45.6307 23.7924 45.923C23.7462 45.9384 23.7001 45.9538 23.6539 45.9615C22.1616 46.523 20.7078 47.2153 19.3385 48.0307C19.1924 48.1076 19.0924 48.1769 19.0001 48.2615C18.8847 48.3692 18.7385 48.423 18.5847 48.423Z" fill="white"/>
<path d="M26.7693 32.9769C26.5309 32.9769 26.3001 32.8384 26.1924 32.5999C26.0232 32.2076 25.6385 31.9538 25.2078 31.9538C25.2078 31.9538 25.2001 31.9538 25.1924 31.9538C24.8232 31.9538 24.4847 32.1307 24.277 32.4307C24.0847 32.7153 23.6924 32.7923 23.4078 32.5923C23.1232 32.4 23.0462 32.0076 23.2462 31.723C23.6847 31.0846 24.4078 30.7 25.1847 30.7C25.1924 30.7 25.2001 30.7 25.2155 30.7C26.1385 30.7 26.9693 31.2461 27.3385 32.0999C27.477 32.4153 27.3309 32.7846 27.0155 32.923C26.9309 32.9615 26.8462 32.9769 26.7693 32.9769Z" fill="white"/>
<path d="M19.5924 50.8078C19.5847 50.8078 19.577 50.8078 19.5693 50.8078C18.9924 50.8001 18.4924 50.5847 18.1231 50.2001C17.7539 49.8155 17.5462 49.3078 17.5539 48.777C17.5462 48.2539 17.7616 47.7308 18.1462 47.3539C18.3924 47.1155 18.7924 47.1155 19.0308 47.3616C19.2693 47.6078 19.2693 48.0001 19.0231 48.2462C18.877 48.3847 18.8001 48.5847 18.8001 48.777C18.7924 49.2078 19.1308 49.5539 19.5462 49.5616C19.7462 49.577 19.9155 49.5001 20.0385 49.3847C20.2924 49.1539 20.6847 49.1693 20.9231 49.4232C21.1539 49.677 21.1385 50.0693 20.8847 50.3078C20.5308 50.6308 20.077 50.8078 19.5924 50.8078Z" fill="white"/>
<path d="M34.8924 46.1077L34.8847 44.8616C35.254 44.8616 35.554 44.5616 35.554 44.1923C35.5617 43.8154 35.277 43.5077 34.9155 43.4846C34.5693 43.4616 34.3078 43.1693 34.3309 42.8231C34.354 42.4769 34.6463 42.2077 34.9924 42.2385C36.0232 42.3077 36.8232 43.1693 36.8078 44.2C36.8078 45.2385 35.9463 46.1 34.8924 46.1077Z" fill="white"/>
</g>
</g>
</svg>
