<svg width="54" height="51" viewBox="0 0 54 51" fill="none" xmlns="http://www.w3.org/2000/svg">
<path opacity="0.4" d="M21.9474 35.4721C23.1396 36.099 26.3977 37.8148 27.0466 38.1775C28.1344 38.7221 29.1385 38.9557 30.0183 38.9557C33.8079 38.9557 35.2856 34.6201 31.171 32.1228C28.5588 30.4715 27.3214 29.6459 22.7848 27.0311C19.9462 25.3951 17.6999 24.7289 15.6075 24.7289C14.3557 24.7292 13.1589 24.9675 11.9239 25.3795C8.62432 26.4805 0 33.6424 0 33.6424L1.62231 45.8691C1.62231 45.8691 8.34919 44.9208 21.86 48.5645C25.9271 49.5451 29.4401 50.3918 31.9737 50.4256C32.0212 50.4265 32.0678 50.4265 32.1162 50.4265C40.8056 50.4256 51.3962 39.9262 51.8448 39.4772C53.8959 37.4245 54.5304 35.136 53.5437 33.3548C52.8083 32.0258 50.9264 30.8583 48.0049 31.5445C46.4579 31.7655 38.8481 33.5808 35.1112 34.4816C35.0962 34.4255 35.0642 34.37 35.0472 34.3143C35.3445 35.2854 35.3407 36.2373 35.117 37.0382C34.5211 39.1729 32.4722 40.6072 30.018 40.6072C28.8194 40.6072 27.5712 40.2867 26.2417 39.6193C25.4728 39.189 24.701 38.7638 23.9265 38.3435C22.8812 37.7768 22.2962 37.4756 21.2685 36.9323C20.2411 36.3887 20.7551 34.8449 21.9474 35.4721Z" fill="#8BCF70"/>
<path d="M3.86603 37.8538C3.76311 37.9225 3.6936 37.9686 3.6936 37.9686L3.69392 37.9692C3.73287 37.943 3.80502 37.8949 3.86603 37.8538ZM48.9356 8.83027C48.9356 17.4527 38.2515 26.3352 33.3381 26.3352C28.425 26.3352 17.7409 17.4527 17.7409 8.83027C17.7409 0.207522 27 -3.48445 33.3381 4.14098C37.5961 -3.48445 48.9356 0.207522 48.9356 8.83027Z" fill="#8BCF70"/>
</svg>
