<svg width="56" height="56" viewBox="0 0 56 56" fill="none" xmlns="http://www.w3.org/2000/svg">
<path opacity="0.4" d="M42.8867 29.96V41.4633C42.8867 44.4266 40.5767 47.6 37.8 48.5333L30.3567 51.0066C29.05 51.45 26.9267 51.45 25.6433 51.0066L18.2 48.5333C15.4 47.6 13.1133 44.4266 13.1133 41.4633L13.1367 29.96L23.45 36.68C25.97 38.3366 30.1233 38.3366 32.6433 36.68L42.8867 29.96Z" fill="#8BCF70"/>
<path d="M46.62 15.0734L32.6433 5.90339C30.1233 4.24672 25.97 4.24672 23.45 5.90339L9.40335 15.0734C4.90002 17.9901 4.90002 24.5934 9.40335 27.5334L13.1367 29.9601L23.45 36.6801C25.97 38.3367 30.1233 38.3367 32.6433 36.6801L42.8867 29.9601L46.0834 27.8601V35.0001C46.0834 35.9567 46.8767 36.7501 47.8334 36.7501C48.79 36.7501 49.5834 35.9567 49.5834 35.0001V23.5201C50.5167 20.5101 49.56 17.0101 46.62 15.0734Z" fill="#8BCF70"/>
</svg>
