<svg width="57" height="56" viewBox="0 0 57 56" fill="none" xmlns="http://www.w3.org/2000/svg">
<path opacity="0.4" d="M51.1833 23.4033C50.2733 22.0966 48.6633 21.35 46.82 21.35H37.2533C36.6233 21.35 36.04 21.0933 35.6433 20.6266C35.2233 20.16 35.06 19.5066 35.1533 18.83L36.3433 11.1766C36.8567 8.88998 35.34 6.32332 33.0533 5.55332C30.93 4.75998 28.4333 5.83332 27.43 7.34998L17.5833 21.98L17.3033 22.4466V43.0733L17.6533 43.4233L25.05 49.14C26.03 50.12 28.2467 50.6566 29.81 50.6566H38.91C42.0367 50.6566 45.1867 48.3 45.8867 45.43L51.6267 27.9533C52.2333 26.2966 52.07 24.6866 51.1833 23.4033Z" fill="#8BCF70"/>
<path d="M12.8233 14.8867H10.4199C6.80325 14.8867 5.33325 16.2867 5.33325 19.7401V43.2134C5.33325 46.6667 6.80325 48.0667 10.4199 48.0667H12.8233C16.4399 48.0667 17.9099 46.6667 17.9099 43.2134V19.7401C17.9099 16.2867 16.4399 14.8867 12.8233 14.8867Z" fill="#8BCF70"/>
</svg>
